<svg xmlns="http://www.w3.org/2000/svg" width="16" height="16" enable-background="new 0 -2 16 16" viewBox="0 -2 16 16"><path fill="#252626" d="M16 11h-2v2h-14v-11h2v-2h14v11z"/><path fill="#C5C5C5" d="M13 12h-12v-9h12v9zm-10-11v1h11v8h1v-9h-12z"/><polygon fill="#2B282E" points="10 5 9 5 11 10 12 10"/><polygon fill="#2B282E" points="3 6 2 6 2 9 3 9 3 6.001 6 6.001 6 5.001 3 5.001"/><rect width="3" height="1" x="3" y="9" fill="#2B282E"/><rect width="1" height="1" x="7" y="6.001" fill="#2B282E"/><rect width="1" height="1" x="7" y="8.001" fill="#2B282E"/></svg>